PathFileType	4	(X/Y/Z)	pose_F01_0-96.trc
DataRate	CameraRate	NumFrames	NumMarkers	Units	OrigDataRate	OrigDataStartFrame	OrigNumFrames
30	30	9	21	m	30	54	96
Frame#	Time	CHip			RHip			RKnee			RAnkle			RBigToe			RSmallToe			RHeel			LHip			LKnee			LAnkle			LBigToe			LSmallToe			LHeel			Neck			Nose			RShoulder			RElbow			RWrist			LShoulder			LElbow			LWrist			
		X1	Y1	Z1	X2	Y2	Z2	X3	Y3	Z3	X4	Y4	Z4	X5	Y5	Z5	X6	Y6	Z6	X7	Y7	Z7	X8	Y8	Z8	X9	Y9	Z9	X10	Y10	Z10	X11	Y11	Z11	X12	Y12	Z12	X13	Y13	Z13	X14	Y14	Z14	X15	Y15	Z15	X16	Y16	Z16	X17	Y17	Z17	X18	Y18	Z18	X19	Y19	Z19	X20	Y20	Z20	X21	Y21	Z21	
54	1.8	-0.20838202532905192	1.831488535949408	-0.4790190222599766	-0.22401328703755563	1.8293576170848715	-0.4162632492773744																-0.19642688645212608	1.8333272281924986	-0.5406295705367284	-0.18991782918532665	1.6933131361594727	-0.5015573379738689	-0.19283491537016922	1.5623908635922141	-0.483947668158373				-0.2244922387251753	1.5322044104929324	-0.51364544356467	-0.18693975899877663	1.5488185770766554	-0.4758327407997051	-0.19996391028259183	1.985697922994423	-0.4927504702738308	-0.2118002533956999	2.0380975636317116	-0.5541580477674444	-0.221582387130924	1.9827553306633368	-0.40778446279360736	-0.262723503056616	1.9419538551300508	-0.49273456925672476	-1.6044140429604004	1.875413445972014	0.9172255784467518	-0.17352130343312916	1.9861366039685004	-0.5599025645844007	-0.19531952835437455	1.9364533801669719	-0.6347701082218611	-0.24016016326734166	1.9451222739561902	-0.5344519836761625
55	1.8333333333333333	-0.20942235528240893	1.8303940855420875	-0.4821383280655	-0.22226906559042875	1.828074665631574	-0.41827217713826054																-0.19655645223145474	1.8322318127283541	-0.5404764219432936	-0.1891665362595118	1.6927951130040728	-0.5023642467102893	-0.19248107812576926	1.562569907527808	-0.48438043675061115				-0.225600717436024	1.5330817604579303	-0.516565899630744	-0.18693975899877663	1.5488185770766554	-0.4758327407997051	-0.19992210426163112	1.982006378792862	-0.492099296204065	-0.2098392168480615	2.0380910466104774	-0.5562075446025135	-0.2206993436633896	1.9829475421199867	-0.41316297276806446	-0.2583816412119345	1.9466401354731204	-0.4802676363490499	-0.21647653244610054	1.9497101409943347	-0.5853556648026186	-0.17333968108254755	1.9826351449039867	-0.5675534640477726	-0.19376160098901024	1.9355026993147844	-0.6284394156262334	-0.23769337760813894	1.936531523422827	-0.5499897801111161
56	1.8666666666666667	-0.20960148879685989	1.8316890549834874	-0.4823693712762402	-0.22437432445040945	1.8288116481659966	-0.424870165565353																-0.19667439227456263	1.833751332060702	-0.5405930562524282	-0.18992451656514	1.69502111486496	-0.5037719993629344	-0.1921272408813693	1.562748951463402	-0.4848132053428493				-0.22535687113801178	1.5317992288022029	-0.5168750431961296	-0.18693975899877663	1.5488185770766554	-0.4758327407997051	-0.19989303945021172	1.9820909511551736	-0.4919590808632853	-0.20888404185660012	2.0378680053144858	-0.5533257437110456	-0.2236380047760128	1.9830240088287863	-0.41424558657869043	-0.2600384580789921	1.9396861936601553	-0.483203646956314	-0.21597396082207618	1.9396302969506602	-0.5986315888439985	-0.17145527646986397	1.982100326021975	-0.5611680301586648	-0.1886120372568844	1.9351316022092457	-0.6291363824400521	-0.23527300831292336	1.931525996395568	-0.5316801191499937
57	1.9	-0.20814772443506313	1.82831359840058	-0.48382322162832814	-0.22499146819725657	1.8238461779917687	-0.4240925405570516																-0.19620952642887127	1.8301192784533558	-0.5367500105366108	-0.19068249687076821	1.6972471167258474	-0.5051797520155794	-0.19177340363696932	1.562927995398996	-0.4852459739350874				-0.22569772631951723	1.5335830625086826	-0.5165821353114679	-0.18693975899877663	1.5488185770766554	-0.4758327407997051	-0.19906424905319883	1.980835867466568	-0.48880081385862983	-0.2069120703502685	2.0378921587630145	-0.5554412555230976	-0.22580495969023612	1.9819698034938993	-0.42060084583921425	-0.2624901162902672	1.9355205928495793	-0.48914553346487416	-0.21285639596460001	1.9361643043283747	-0.5873197351110915	-0.17061854776612453	1.980963620967953	-0.5579541589324403	-0.18546153331890697	1.9284209527953688	-0.6159769706388957	-0.2414635405537809	1.9318560644260865	-0.5261629033358414
58	1.9333333333333333	-0.20780081255788604	1.828418207331854	-0.483969667993067	-0.22563446765727135	1.8262630642306192	-0.42792524064118737																-0.1940160334605188	1.831438539273092	-0.5390703689880926	-0.190569074655064	1.6966810529301963	-0.5053104920813921	-0.19141956639256935	1.56310703933459	-0.48567874252732557				-0.22338573726718836	1.5322681697387646	-0.5190780755216327	-0.18693975899877663	1.5488185770766554	-0.4758327407997051	-0.19907370824381798	1.9808390056214786	-0.4887971179071907	-0.20692135573498177	2.0367508638006737	-0.5554461713947471	-0.22680406370239772	1.9808640870579548	-0.4234276987245157	-0.2669818491041712	1.9308836517496044	-0.5031743325907678	-0.21091930866696895	1.9361327099162196	-0.5809469508012105	-0.1697308615364019	1.9809502975536422	-0.5548519856292734	-0.17905229509058235	1.928175495460153	-0.6127962791456848	-0.23812644588777762	1.9310054890511812	-0.523870899483166
59	1.9666666666666666	-0.20667617726958443	1.824382906889018	-0.47991255389615145	-0.2264137248200567	1.8210492504239288	-0.4303975244758696																-0.19104158352120773	1.8273339931786223	-0.5285343580237912	-0.1891528820990665	1.690393278450224	-0.5021371458506941	-0.19106572914816938	1.563286083270184	-0.4861115111195637				-0.22357299297898756	1.533242436523811	-0.5187291772385869	-0.18693975899877663	1.5488185770766554	-0.4758327407997051	-0.19808042662304615	1.9796922296876571	-0.48511665631049106	-0.20685144879646755	2.037786486877768	-0.5555183978190964	-0.22865176801111026	1.979529611732091	-0.42087928589899043	-0.26375983902619826	1.9272354185274123	-0.5010509610344712	-0.20898222136933786	1.9361011155040646	-0.5745741664913295	-0.1688856201609067	1.982375445573472	-0.5519022840514064	-0.17905229509058235	1.928175495460153	-0.6127962791456848	-0.23478935122177433	1.9301549136762761	-0.5215788956304906
60	2.0	-0.207193291669553	1.8231245229629545	-0.4832593463199676	-0.22790480046201758	1.8181180151772742	-0.4370087922572857																-0.1896252028781332	1.825701797158297	-0.5252826584561866	-0.1886359806542443	1.6914897165954859	-0.5027906186626665	-0.19107483266899494	1.5633957771817175	-0.48615013645026617				-0.22526018317878976	1.5312935934679033	-0.5170017820039435	-0.18693975899877663	1.5488185770766554	-0.4758327407997051	-1.8693145153852742	1.8942674181483257	1.3861203255879995	-0.207785756630573	2.0366946803515398	-0.5586088312518138	-0.22971946806744364	1.9809141710582052	-0.42454555119570175	-0.263300230103089	1.9179461795977741	-0.49918756522596053	-0.2070451340717068	1.9360695210919094	-0.5682013821814486	-0.16794162496629586	1.98211967550716	-0.5486853818111287	-0.17905229509058235	1.928175495460153	-0.6127962791456848	-0.23145225655577106	1.9293043383013708	-0.5192868917778153
61	2.033333333333333	-0.20857001064491787	1.827257351827436	-0.4869792259682394	-0.22667746344601664	1.8212583143886636	-0.4395131009362728																-0.18989064363695882	1.828694591435443	-0.5255274260788504	-0.18811907920942209	1.692586154740748	-0.5034440914746388	-0.19108393618982053	1.5635054710932508	-0.48618876178096865				-0.2234501296671944	1.5324771677459816	-0.519063849032093	-0.18693975899877663	1.5488185770766554	-0.4758327407997051	-0.19714325343761974	1.9809061151008096	-0.4822873641595988	-0.2069224519728555	2.0365866546359963	-0.5556854575629238	-0.22957742710937024	1.9807862522022062	-0.42414126251597617	-0.26124000173916545	1.9172397723068662	-0.5015936315543792	-0.20024308184789208	1.9381131597071328	-0.5637788606222649	-0.1653958945783368	1.9839282196098174	-0.5398320252593057	-0.17905229509058235	1.928175495460153	-0.6127962791456848	-0.23145225655577106	1.9293043383013708	-0.5192868917778153
62	2.066666666666667	-0.20811931026208041	1.8259751729701867	-0.48357919584089093	-0.22708495502902407	1.8220532169330663	-0.43961715682105534																-0.18943968221889598	1.826755222621586	-0.5221465163209252	-0.1876021777645999	1.6936825928860098	-0.5040975642866111	-0.19113763243115028	1.56331496048293	-0.4861331853912228				-0.22379131198066995	1.5341273167495328	-0.5188082790318223	-0.18693975899877663	1.5488185770766554	-0.4758327407997051	-0.1970977976778385	1.9809722651353487	-0.4822642892458209	-0.20779270257213192	2.036734973968971	-0.558612823331527	-0.22955597141902118	1.980783715560685	-0.4242142696940884	-0.26025853115993575	1.9167909928656521	-0.4982912655684008	-0.20473726490890926	1.9335100525769853	-0.5789040829179884	-0.16447860955782112	1.9838611772634247	-0.5368214481111492	-0.17905229509058235	1.928175495460153	-0.6127962791456848	-0.23145225655577106	1.9293043383013708	-0.5192868917778153
